<?xml version="1.0" standalone="no"?>
<!DOCTYPE svg PUBLIC "-//W3C//DTD SVG 20010904//EN"
 "http://www.w3.org/TR/2001/REC-SVG-20010904/DTD/svg10.dtd">
<svg version="1.0" xmlns="http://www.w3.org/2000/svg"
 width="160.000000pt" height="40.000000pt" viewBox="0 0 160.000000 40.000000"
 preserveAspectRatio="xMidYMid meet">

<g transform="translate(0.000000,40.000000) scale(0.100000,-0.100000)"
fill="#000000" stroke="none">
<path d="M69 307 c-39 -26 -63 -85 -53 -130 9 -43 59 -94 99 -101 74 -14 145
48 145 127 0 103 -107 161 -191 104z m117 -41 c15 -12 17 -17 7 -27 -10 -10
-16 -10 -25 -1 -36 36 -93 -11 -69 -57 13 -23 50 -28 68 -10 12 12 33 4 33
-11 0 -16 -60 -41 -80 -35 -27 8 -60 53 -60 80 0 12 9 34 21 49 23 30 72 35
105 12z"/>
<path d="M342 264 c-32 -22 -43 -57 -31 -94 18 -49 80 -68 114 -34 22 23 11
29 -17 10 -30 -21 -44 -20 -68 4 -25 25 -26 72 -2 93 20 19 67 23 77 7 3 -5
12 -10 18 -10 18 1 -33 40 -52 40 -9 0 -27 -7 -39 -16z"/>
<path d="M1112 193 c2 -77 2 -77 5 -15 2 34 7 62 11 62 4 0 25 -27 47 -60 22
-33 43 -60 48 -60 4 0 7 34 7 75 0 87 -18 102 -22 18 l-3 -57 -38 57 c-20 31
-42 57 -47 57 -6 0 -9 -32 -8 -77z"/>
<path d="M1500 235 c-8 -10 -9 -15 -2 -15 6 0 12 -21 14 -47 2 -28 8 -47 16
-49 7 -1 8 0 2 3 -12 6 -13 90 -1 95 5 2 3 8 -4 15 -10 10 -16 9 -25 -2z"/>
<path d="M475 220 c-4 -6 6 -9 26 -8 18 2 34 -2 36 -9 3 -8 -4 -13 -15 -13
-11 0 -30 -8 -43 -19 -20 -16 -21 -21 -10 -35 8 -10 27 -15 52 -14 37 1 39 3
39 35 0 50 -16 73 -50 73 -16 0 -32 -5 -35 -10z m49 -77 c-21 -15 -39 -12 -39
7 0 16 48 31 54 17 2 -6 -5 -16 -15 -24z"/>
<path d="M595 220 c-4 -6 6 -9 26 -8 18 2 34 -2 36 -9 3 -8 -4 -13 -15 -13
-11 0 -30 -8 -43 -19 -20 -16 -21 -21 -10 -35 8 -10 27 -15 52 -14 37 1 39 3
39 35 0 50 -16 73 -50 73 -16 0 -32 -5 -35 -10z m49 -77 c-21 -15 -39 -12 -39
7 0 16 48 31 54 17 2 -6 -5 -16 -15 -24z"/>
<path d="M712 173 c1 -50 2 -52 5 -16 3 30 11 47 26 58 21 15 21 15 -6 15 -26
0 -27 -1 -25 -57z"/>
<path d="M792 218 c-17 -17 -15 -73 2 -87 19 -16 68 -10 74 7 3 11 1 11 -17 0
-15 -9 -26 -10 -38 -2 -34 21 -26 34 21 34 47 0 54 7 36 41 -12 22 -59 26 -78
7z m66 -20 c3 -14 -3 -18 -26 -18 -35 0 -45 9 -30 27 15 19 52 12 56 -9z"/>
<path d="M920 215 c-27 -33 -7 -95 30 -95 26 0 50 10 50 21 0 5 -9 4 -20 -3
-15 -9 -25 -10 -37 -2 -34 21 -26 34 21 34 47 0 54 7 36 41 -13 23 -62 26 -80
4z m68 -17 c3 -14 -3 -18 -26 -18 -35 0 -45 9 -30 27 15 19 52 12 56 -9z"/>
<path d="M1042 173 c1 -50 2 -52 5 -16 3 30 11 47 26 58 21 15 21 15 -6 15
-26 0 -27 -1 -25 -57z"/>
<path d="M1277 212 c-10 -10 -17 -25 -17 -33 0 -26 30 -59 53 -58 20 1 20 2 2
6 -27 7 -35 15 -40 43 -9 48 52 71 73 28 7 -15 11 -18 11 -7 2 38 -54 53 -82
21z"/>
<path d="M1399 204 l21 -26 -21 -29 c-11 -16 -17 -29 -12 -29 4 0 14 10 22 22
l14 22 17 -22 c27 -32 35 -27 11 7 l-21 29 21 26 c11 14 17 26 14 26 -4 0 -15
-10 -25 -22 l-17 -22 -12 22 c-6 12 -16 22 -22 22 -6 0 -1 -12 10 -26z"/>
</g>
</svg>
